<svg width="234" height="234" viewBox="0 0 234 234" fill="none" xmlns="http://www.w3.org/2000/svg">
<circle cx="117" cy="117" r="117" fill="#FECA01"/>
<mask id="mask0_1_32" style="mask-type:alpha" maskUnits="userSpaceOnUse" x="59" y="48" width="116" height="138">
<path d="M174.116 127.942C174.116 159.73 148.347 185.5 116.558 185.5C84.7697 185.5 59 159.73 59 127.942C59 96.1534 84.7697 48 116.558 48C148.347 48 174.116 96.1534 174.116 127.942Z" fill="#342F2F"/>
</mask>
<g mask="url(#mask0_1_32)">
<path d="M31.5 166.954L27.0233 14.1047L186.267 62.0698L191.384 193.814L102.488 211.721L31.5 166.954Z" fill="#F1ECEC"/>
<path d="M105.686 230.267C55.8024 241.14 50.1163 219.349 72.5 204C94.8837 188.651 153.012 178.465 158.128 124.105C163.244 69.7442 142.5 35 142.5 35L197.779 61.4302C199.058 101.721 201.872 183.07 202.895 186.14C204.174 189.977 155.57 219.395 105.686 230.267Z" fill="#4E4C4C" fill-opacity="0.36"/>
</g>
<path d="M111 83L111 131" stroke="#152C42" stroke-width="6" stroke-linecap="round"/>
<line x1="151" y1="132" x2="111" y2="132" stroke="#152C42" stroke-width="6" stroke-linecap="round"/>
</svg>
