<svg width="234" height="234" viewBox="0 0 234 234" fill="none" xmlns="http://www.w3.org/2000/svg">
<rect width="234" height="234" fill="#E5E5E5"/>
<mask id="mask0_0_1" style="mask-type:alpha" maskUnits="userSpaceOnUse" x="59" y="48" width="116" height="138">
<path d="M174.116 127.942C174.116 159.73 148.347 185.5 116.558 185.5C84.7697 185.5 59 159.73 59 127.942C59 96.1534 84.7697 48 116.558 48C148.347 48 174.116 96.1534 174.116 127.942Z" fill="#342F2F"/>
</mask>
<g mask="url(#mask0_0_1)">
<path d="M31.5 166.954L27.0233 14.1047L186.267 62.0698L191.384 193.814L102.488 211.721L31.5 166.954Z" fill="#FF0000"/>
<path d="M105.686 230.267C55.8024 241.14 50.1163 219.349 72.5 204C94.8837 188.651 153.012 178.465 158.128 124.105C163.244 69.7442 142.5 35 142.5 35L197.779 61.4302C199.058 101.721 201.872 183.07 202.895 186.14C204.174 189.977 155.57 219.395 105.686 230.267Z" fill="#4E4C4C" fill-opacity="0.36"/>
</g>
<path d="M125.832 96.072C126.259 95.304 126.877 94.792 127.688 94.536C128.499 94.28 129.501 94.152 130.696 94.152C131.933 94.152 132.915 94.2587 133.64 94.472C134.408 94.6853 134.963 94.9413 135.304 95.24C135.688 95.5387 135.965 95.9867 136.136 96.584C136.392 97.2667 136.52 98.3547 136.52 99.848V135.368C136.52 136.392 136.477 137.139 136.392 137.608C136.349 138.077 136.157 138.632 135.816 139.272C135.219 140.424 133.555 141 130.824 141C129.16 141 128.008 140.872 127.368 140.616C126.728 140.36 126.195 139.955 125.768 139.4C116.168 126.6 109.853 118.237 106.824 114.312V135.368C106.824 136.392 106.781 137.139 106.696 137.608C106.653 138.077 106.461 138.632 106.12 139.272C105.523 140.424 103.859 141 101.128 141C98.4827 141 96.8613 140.424 96.264 139.272C95.9227 138.632 95.7093 138.056 95.624 137.544C95.5813 137.032 95.56 136.285 95.56 135.304V99.592C95.56 97.9707 95.752 96.7973 96.136 96.072C96.5627 95.304 97.1813 94.792 97.992 94.536C98.8027 94.28 99.848 94.152 101.128 94.152C102.408 94.152 103.411 94.28 104.136 94.536C104.904 94.7493 105.437 95.0053 105.736 95.304C105.907 95.432 106.397 95.9867 107.208 96.968C116.211 109.213 122.227 117.299 125.256 121.224V99.592C125.256 97.9707 125.448 96.7973 125.832 96.072Z" fill="#152C42"/>
</svg>
